<svg width="800" height="230" viewBox="0 0 800 230" fill="none" xmlns="http://www.w3.org/2000/svg">
<path d="M112.214 179.737V124.015C112.214 120.172 108.187 117.733 104.821 119.382L104.497 119.556L62.5172 143.789V209.665C62.5172 225.224 45.6771 234.94 32.2067 227.167H32.205L10.11 214.412L10.1117 214.41C3.81297 210.791 0.000266409 204.098 0 196.912V76.1764C0.000245406 68.9581 3.85363 62.2902 10.1084 58.6779L10.11 58.6763L107.01 2.73677L107.011 2.73513L107.645 2.38369C121.004 -4.73196 137.321 4.92148 137.322 20.2369C137.322 43.2488 125.055 64.5014 105.133 76.0015V76.0031L56.2403 104.223L55.6715 104.532C49.7588 107.556 42.4493 105.443 39.0916 99.6265C35.6257 93.6217 37.6834 85.9438 43.6882 82.4778L92.5809 54.258L93.7055 53.5829C102.569 48.0651 108.774 39.3064 111.145 29.34L25.1076 79.0092V194.077L37.4096 201.178V140.954C37.4098 133.745 41.2731 127.054 47.5213 123.454L91.945 97.8104L92.8931 97.2841C112.9 86.6208 137.321 101.096 137.322 124.015V179.737C137.322 186.67 131.701 192.291 124.768 192.291C117.835 192.291 112.214 186.67 112.214 179.737Z" fill="url(#paint0_linear_177_44806)"/>
<path d="M706.293 181.681H683.253L643.176 85.457H671.249L693.514 139.668L709.197 85.457H732.236L749.468 140.249L771.926 85.457H800L759.342 181.681H736.496L720.813 131.536L706.293 181.681Z" fill="#1F1034"/>
<path d="M590.632 183.618C581.339 183.618 572.949 181.488 565.462 177.228C557.976 172.969 552.103 167.032 547.844 159.416C543.585 151.801 541.455 143.218 541.455 133.666C541.455 124.115 543.585 115.531 547.844 107.916C552.103 100.301 557.976 94.3633 565.462 90.1038C572.949 85.7153 581.339 83.5211 590.632 83.5211C600.054 83.5211 608.509 85.6508 615.995 89.9102C623.481 94.1696 629.289 100.107 633.42 107.722C637.679 115.338 639.809 123.986 639.809 133.666C639.809 143.347 637.679 151.995 633.42 159.61C629.289 167.096 623.481 172.969 615.995 177.228C608.509 181.488 600.054 183.618 590.632 183.618ZM590.245 158.642C597.215 158.642 602.894 156.448 607.282 152.059C611.671 147.542 613.865 141.411 613.865 133.666C613.865 126.051 611.671 119.92 607.282 115.273C602.894 110.627 597.344 108.303 590.632 108.303C583.92 108.303 578.37 110.691 573.981 115.467C569.593 120.113 567.399 126.18 567.399 133.666C567.399 141.152 569.528 147.219 573.788 151.865C578.047 156.383 583.533 158.642 590.245 158.642Z" fill="#1F1034"/>
<path d="M439.356 181.681V85.4572H464.525V90.8783C471.108 85.9735 478.272 83.5211 486.016 83.5211C493.76 83.5211 500.73 85.4572 506.926 89.3294C513.121 93.2016 517.962 98.5581 521.447 105.399C524.932 112.111 526.674 119.791 526.674 128.439V181.681H500.73V129.988C500.73 123.276 499.181 117.984 496.084 114.111C493.115 110.239 488.985 108.303 483.693 108.303C478.272 108.303 473.819 110.304 470.334 114.305C466.978 118.177 465.3 123.082 465.3 129.019V181.681H439.356Z" fill="#1F1034"/>
<path d="M409.827 75.9701C405.567 75.9701 402.018 74.5503 399.178 71.7107C396.468 68.8711 395.112 65.3216 395.112 61.0621C395.112 56.8027 396.468 53.2532 399.178 50.4136C402.018 47.574 405.567 46.1541 409.827 46.1541C413.957 46.1541 417.442 47.6385 420.282 50.6072C423.25 53.4468 424.735 56.9318 424.735 61.0621C424.735 65.3216 423.25 68.8711 420.282 71.7107C417.442 74.5503 413.957 75.9701 409.827 75.9701ZM422.024 181.681H395.887V85.457H422.024V181.681Z" fill="#1F1034"/>
<path d="M365.584 75.9701C361.325 75.9701 357.775 74.5503 354.936 71.7107C352.225 68.8711 350.87 65.3216 350.87 61.0621C350.87 56.8027 352.225 53.2532 354.936 50.4136C357.775 47.574 361.325 46.1541 365.584 46.1541C369.715 46.1541 373.2 47.6385 376.039 50.6072C379.008 53.4468 380.492 56.9318 380.492 61.0621C380.492 65.3216 379.008 68.8711 376.039 71.7107C373.2 74.5503 369.715 75.9701 365.584 75.9701ZM377.782 181.681H351.644V85.457H377.782V181.681Z" fill="#1F1034"/>
<path d="M340.197 176.26C333.356 180.907 326.128 183.23 318.513 183.23C312.833 183.23 307.606 181.81 302.83 178.971C298.184 176.131 294.44 172.13 291.601 166.967C288.89 161.804 287.535 155.738 287.535 148.768L287.341 46.1541H313.092L313.285 146.831C313.285 150.316 313.995 152.962 315.415 154.769C316.835 156.576 318.771 157.48 321.223 157.48C323.676 157.48 326.838 156.447 330.71 154.382L340.197 176.26Z" fill="#1F1034"/>
<path d="M216.886 181.681H189.78V46.1542H254.474C264.51 46.1542 272.645 54.2895 272.645 64.325V72.0979H216.886V99.7842H269.548V125.728H216.886V181.681Z" fill="#1F1034"/>
<defs>
<linearGradient id="paint0_linear_177_44806" x1="71.2623" y1="73.9431" x2="71.2623" y2="217.844" gradientUnits="userSpaceOnUse">
<stop stop-color="#1CBC50"/>
<stop offset="1" stop-color="#008DFF"/>
</linearGradient>
</defs>
</svg>
